PathFileType	3	(X/Y/Z)	C:\Users\koon_\Desktop\
DataRate	CameraRate	NumFrames	NumMarkers	Units	OrigDataRate	OrigDataStartFrame	OrigNumFrames
100.0	100.0	6	27	mm	100.0	1	3706	
Frame#	Time	GM:LFHD			GM:RFHD			GM:LBHD			GM:RBHD			GM:C7			GM:T10			GM:CLAV			GM:STRN			GM:RBAK			GM:LSHO			GM:LUPA			GM:LELB			GM:LFRA			GM:LWRA			GM:LWRB			GM:LFIN			GM:RSHO			GM:RUPA			GM:RELB			GM:RFRA			GM:RWRA			GM:RWRB			GM:RFIN			GM:LASI			GM:RASI			GM:LPSI			GM:RPSI			
		X1	Y1	Z1	X2	Y2	Z2	X3	Y3	Z3	X4	Y4	Z4	X5	Y5	Z5	X6	Y6	Z6	X7	Y7	Z7	X8	Y8	Z8	X9	Y9	Z9	X10	Y10	Z10	X11	Y11	Z11	X12	Y12	Z12	X13	Y13	Z13	X14	Y14	Z14	X15	Y15	Z15	X16	Y16	Z16	X17	Y17	Z17	X18	Y18	Z18	X19	Y19	Z19	X20	Y20	Z20	X21	Y21	Z21	X22	Y22	Z22	X23	Y23	Z23	X24	Y24	Z24	X25	Y25	Z25	X26	Y26	Z26	X27	Y27	Z27	
1	0	77.674034	1607.2318	-87.173996	-76.159859	1598.9447	-87.711266	80.122475	1577.6941	-217.06857	-83.672607	1573.2773	-201.11847	-1.9444175	1416.9835	-247.63034	-2.3246617	1224.3412	-296.68414	13.376595	1353.3333	-89.968918	14.260855	1206.1366	-45.925369	-98.348724	1305.7548	-289.91269	176.33119	1388.5728	-184.14558	239.33763	1282.3302	-178.16287	264.65668	1068.6976	-203.39227				215.7168	898.39801	-70.763641	268.55432	875.92188	-105.94773	227.12849	818.4964	-37.04002	-178.92294	1387.8413	-144.73138	-233.63493	1155.8777	-110.63612	-267.83224	1065.3549	-139.14584	-221.49794	1022.7726	-67.682838				-242.3093	876.25989	-50.538635	-189.26912	819.14905	9.2716722	148.10364	901.51587	-76.206017	-144.81227	904.90253	-63.841141	62.727764	951.32281	-284.39944	-75.599197	942.80304	-279.56778
2	0.01	77.560081	1607.2705	-87.097412	-76.270409	1598.9312	-87.683601	80.108177	1577.6761	-217.01219	-83.740746	1573.2565	-201.08325	-1.9399121	1416.9805	-247.59471	-2.318459	1224.3676	-296.69098	13.368837	1353.2727	-89.926132	14.196115	1206.0786	-45.834991	-98.330948	1305.7195	-289.82736	176.33983	1388.5513	-184.09369	239.3652	1282.3361	-178.08855	264.67505	1068.6989	-203.3197				216.05388	898.4411	-69.988289	268.62015	875.9566	-105.87709	226.75615	818.37018	-37.260021	-178.9491	1387.7843	-144.68239	-233.64801	1155.8478	-110.60554	-267.81567	1065.311	-139.05307	-221.51721	1022.7325	-67.695404				-242.30904	876.2168	-50.551487	-189.26152	819.13116	9.2744722	148.10364	901.51587	-76.206017	-144.84349	904.87213	-63.839466	62.672287	951.2973	-284.34824	-75.603432	942.79938	-279.56265
3	0.02	77.502701	1607.2848	-87.074921	-76.254295	1598.8947	-87.597687	80.045013	1577.6865	-216.92152	-83.772453	1573.209	-200.99545	-1.9462609	1416.9766	-247.52493	-2.3453445	1224.3594	-296.6329	13.341805	1353.2725	-89.912697	14.21275	1206.1071	-45.810066	-98.308487	1305.6997	-289.82605	176.32639	1388.5361	-184.03983	239.32863	1282.3214	-178.05827	264.71167	1068.7325	-203.23586				215.61458	898.28314	-71.134308	268.72037	875.98932	-105.77797	227.29138	818.52856	-36.844803	-178.98997	1387.7546	-144.66905	-233.60913	1155.7919	-110.533	-267.81558	1065.2861	-139.03119	-221.50607	1022.6837	-67.687645				-242.35435	876.20758	-50.514069	-189.24806	819.09888	9.320755	148.10364	901.51587	-76.206017	-144.82625	904.91125	-63.752235	62.682697	951.3103	-284.32187	-75.636375	942.80542	-279.50412
4	0.03	77.477455	1607.2852	-87.000504	-76.368591	1598.922	-87.594727	79.995895	1577.6941	-216.84756	-83.830177	1573.2067	-200.96231	-1.9524213	1416.9728	-247.45518	-2.320821	1224.3508	-296.57874	13.313086	1353.2139	-89.873459	14.192015	1206.0212	-45.771122	-98.311653	1305.689	-289.71765	176.29628	1388.5288	-183.96066	239.30093	1282.3179	-177.96719	264.71307	1068.731	-203.14276				215.63724	898.22925	-71.134041	268.78445	875.99579	-105.7401	227.36806	818.52679	-36.813095	-179.01598	1387.7028	-144.60913	-233.62131	1155.7637	-110.53904	-267.81784	1065.2496	-139.04477	-221.48055	1022.6674	-67.606293				-242.31602	876.13458	-50.432777	-189.23569	819.04529	9.333271	148.12642	901.53149	-76.13237	-144.8309	904.83215	-63.753181	62.671997	951.2887	-284.29068	-75.628105	942.80243	-279.45743
5	0.04	77.398979	1607.304	-86.892685	-76.429771	1598.9291	-87.544777	79.989731	1577.7115	-216.7861	-83.862694	1573.1577	-200.90344	-1.9773272	1416.9851	-247.41257	-2.3487954	1224.3636	-296.51492	13.302094	1353.2166	-89.807594	14.184871	1205.9952	-45.761906	-98.314835	1305.6923	-289.71463	176.26212	1388.5426	-183.90593	239.27541	1282.3137	-177.88774	264.7652	1068.7477	-203.06401				216.22914	898.52631	-70.025169	268.86584	876.00464	-105.62954	227.48569	818.53302	-36.717495	-179.00851	1387.6603	-144.60649	-233.66544	1155.7091	-110.53126	-267.81293	1065.2107	-139.04216	-221.51607	1022.6075	-67.587059				-242.32214	876.1037	-50.43486	-189.21512	819.01221	9.3861494	148.10603	901.52612	-76.107582	-144.82977	904.83722	-63.70314	62.622295	951.31793	-284.24899	-75.667564	942.7793	-279.42996
6	0.05	77.344727	1607.3035	-86.813049	-76.455872	1598.8503	-87.477852	79.936859	1577.7305	-216.71709	-83.908379	1573.1576	-200.86943	-2.0051882	1416.9827	-247.31967	-2.3495448	1224.365	-296.51456	13.290959	1353.1555	-89.755745	14.197831	1205.962	-45.702801	-98.316269	1305.6897	-289.6582	176.23428	1388.4977	-183.82367	239.24484	1282.2959	-177.85553	264.75943	1068.7435	-202.99377				216.17902	898.42706	-70.01767	268.8913	876.0061	-105.55753	227.51746	818.52142	-36.620899	-179.02309	1387.6157	-144.5589	-233.63039	1155.6591	-110.51816	-267.77271	1065.1201	-138.97279	-221.49181	1022.59	-67.501945				-242.30074	876.08453	-50.412403	-189.23524	818.9978	9.4452839	148.13547	901.53931	-76.029778	-144.83894	904.84467	-63.658833	62.617699	951.3064	-284.19821	-75.669258	942.76843	-279.36026
